<svg width="8764" height="309" xmlns="http://www.w3.org/2000/svg" xmlns:xlink="http://www.w3.org/1999/xlink" xml:space="preserve" overflow="hidden"><g transform="translate(3233 -723)"><rect x="-3228.5" y="799.5" width="238" height="116" stroke="#000000" stroke-width="9.16667" stroke-linejoin="round" stroke-miterlimit="10" fill="#8EB4E3"/><text font-family="Times New Roman,Times New Roman_MSFontService,sans-serif" font-weight="700" font-size="147" transform="matrix(1 0 0 1 -2918.12 910)">U: Unexplored</text><rect x="-1871.5" y="799.5" width="238" height="116" stroke="#000000" stroke-width="9.16667" stroke-linejoin="round" stroke-miterlimit="10" fill="#595959"/><text font-family="Times New Roman,Times New Roman_MSFontService,sans-serif" font-weight="700" font-size="147" transform="matrix(1 0 0 1 -1551.66 910)">T: Threat</text><rect x="-823.5" y="799.5" width="238" height="116" stroke="#000000" stroke-width="9.16667" stroke-linejoin="round" stroke-miterlimit="10" fill="#00FF00"/><text font-family="Times New Roman,Times New Roman_MSFontService,sans-serif" font-weight="700" font-size="147" transform="matrix(1 0 0 1 -506.102 910)">S: Safe</text><path d="M46.0001 812.25 207.5 812.25 207.5 768 296 856.5 207.5 945 207.5 900.75 46.0001 900.75Z" fill-rule="evenodd"/><text font-family="Times New Roman,Times New Roman_MSFontService,sans-serif" font-weight="700" font-size="147" transform="matrix(1 0 0 1 366.451 910)">Traversal Sequence</text><path d="M1713.5 857C1713.5 803.152 1757.15 759.5 1811 759.5 1864.85 759.5 1908.5 803.152 1908.5 857 1908.5 910.848 1864.85 954.5 1811 954.5 1757.15 954.5 1713.5 910.848 1713.5 857Z" stroke="#000000" stroke-width="9.16667" stroke-linejoin="round" stroke-miterlimit="10" fill="#A6A6A6" fill-rule="evenodd"/><text font-family="Times New Roman,Times New Roman_MSFontService,sans-serif" font-weight="700" font-size="147" transform="matrix(1 0 0 1 2016.73 910)">Unvisited Node</text><path d="M3064.5 857C3064.5 803.152 3108.15 759.5 3162 759.5 3215.85 759.5 3259.5 803.152 3259.5 857 3259.5 910.848 3215.85 954.5 3162 954.5 3108.15 954.5 3064.5 910.848 3064.5 857Z" stroke="#000000" stroke-width="9.16667" stroke-linejoin="round" stroke-miterlimit="10" fill="none" fill-rule="evenodd"/><text font-family="Times New Roman,Times New Roman_MSFontService,sans-serif" font-weight="700" font-size="147" transform="matrix(1 0 0 1 3365.71 910)">Visited Node</text><path d="M4285.5 857C4285.5 803.152 4329.15 759.5 4383 759.5 4436.85 759.5 4480.5 803.152 4480.5 857 4480.5 910.848 4436.85 954.5 4383 954.5 4329.15 954.5 4285.5 910.848 4285.5 857ZM4306.59 857C4306.59 899.203 4340.8 933.415 4383 933.415 4425.2 933.415 4459.41 899.203 4459.41 857 4459.41 814.797 4425.2 780.585 4383 780.585 4340.8 780.585 4306.59 814.797 4306.59 857Z" stroke="#000000" stroke-width="9.16667" stroke-linejoin="round" stroke-miterlimit="10" fill="none" fill-rule="evenodd"/><text font-family="Times New Roman,Times New Roman_MSFontService,sans-serif" font-weight="700" font-size="147" transform="matrix(1 0 0 1 4568.76 910)">Current Node</text></g></svg>